<?xml version="1.0" encoding="utf-8"?>
<!-- Generator: Adobe Illustrator 25.0.1, SVG Export Plug-In . SVG Version: 6.00 Build 0)  -->
<svg version="1.2" baseProfile="tiny" xmlns="http://www.w3.org/2000/svg" xmlns:xlink="http://www.w3.org/1999/xlink" x="0px"
	 y="0px" viewBox="0 0 36 36" overflow="visible" xml:space="preserve">
<g id="eventbrite">
</g>
<g id="discount">
</g>
<g id="cart">
	<g>
		<path d="M11.4,22.8h16.9c0.4,0,0.8-0.3,0.9-0.7L33,9c0.1-0.3,0-0.6-0.2-0.8c-0.2-0.2-0.5-0.4-0.7-0.4H9.3l-0.7-3
			C8.5,4.4,8.1,4.1,7.7,4.1H2C1.5,4.1,1.1,4.5,1.1,5c0,0.5,0.4,0.9,0.9,0.9h4.9l3.4,15.2c-1,0.4-1.7,1.4-1.7,2.6
			c0,1.5,1.3,2.8,2.8,2.8h16.9c0.5,0,0.9-0.4,0.9-0.9c0-0.5-0.4-0.9-0.9-0.9H11.4c-0.5,0-0.9-0.4-0.9-0.9
			C10.5,23.2,10.9,22.8,11.4,22.8z"/>
		<path d="M10.5,29.3c0,1.5,1.3,2.8,2.8,2.8c1.5,0,2.8-1.3,2.8-2.8c0-1.5-1.3-2.8-2.8-2.8C11.8,26.5,10.5,27.8,10.5,29.3z"/>
		<path d="M23.7,29.3c0,1.5,1.3,2.8,2.8,2.8c1.5,0,2.8-1.3,2.8-2.8c0-1.5-1.3-2.8-2.8-2.8C24.9,26.5,23.7,27.8,23.7,29.3z"/>
	</g>
</g>
<g id="tablet">
</g>
<g id="tickets">
</g>
<g id="value">
</g>
<g id="simple">
</g>
<g id="shopify">
</g>
<g id="toast">
</g>
<g id="square">
</g>
<g id="squarespace">
</g>
<g id="chownow">
</g>
</svg>
