<?xml version="1.0" encoding="utf-8"?>
<!-- Generator: Adobe Illustrator 25.0.1, SVG Export Plug-In . SVG Version: 6.00 Build 0)  -->
<svg version="1.2" baseProfile="tiny" xmlns="http://www.w3.org/2000/svg" xmlns:xlink="http://www.w3.org/1999/xlink" x="0px"
	 y="0px" viewBox="0 0 36 36" overflow="visible" xml:space="preserve">
<g id="eventbrite">
</g>
<g id="discount">
</g>
<g id="cart">
</g>
<g id="tablet">
</g>
<g id="tickets">
</g>
<g id="value">
</g>
<g id="simple">
</g>
<g id="shopify">
</g>
<g id="toast">
</g>
<g id="square">
</g>
<g id="squarespace">
</g>
<g id="chownow">
	<g>
		<path d="M3.1,14.6C3,7.2,10.5,0.2,19.5,0.7C26.8,1.2,32.9,7,33.7,14.2c0.5,4.9-1,9-4.2,12.6c-2.8,3.1-6.2,5.4-9.9,7.3
			c-0.7,0.4-1.5,0.4-2.3,0c-4.4-2.2-8.4-5.1-11.3-9.1C4.1,22.4,3.1,19.5,3.1,14.6z M19.8,15.4c0.2-0.2,0.5-0.5,0.7-0.7
			c1.4-1.2,2.7-2.5,4.1-3.7c0.7-0.7,0.6-1.7-0.3-2.1c-0.5-0.2-1.1-0.1-1.5,0.5c-2,2.2-4,4.3-6,6.5c-0.7,0.8-1.4,1.2-2.5,1.1
			c-1-0.1-1.9,0.3-2.6,1c-1,0.9-1.6,2.1-1.8,3.4c-0.3,1.8,0.8,2.9,2.6,2.7c0.2,0,0.3,0,0.5-0.1c1.9-0.4,4.3-2.1,4-4.8
			c-0.1-1.1,0.7-1.8,1.5-2.4c1,0.7,1.6,1.5,1.5,2.8c-0.1,1.1,0.5,2.1,1.3,2.7c1,0.7,2.1,1.2,3.2,1.8c0.1,0.1,0.3,0,0.4,0
			c0.1-0.1,0.1-0.2,0.2-0.3c-0.2-0.1-0.4-0.2-0.5-0.3c-1-0.9-2-1.7-3-2.6c-0.3-0.2-0.4-0.5-0.1-0.8c0.3-0.3,0.6-0.2,0.8,0
			c0.2,0.1,0.3,0.3,0.5,0.4c0.9,0.8,1.8,1.6,2.7,2.4c0.1,0.1,0.4,0.2,0.6,0.2c0.1,0,0.2-0.3,0.2-0.4c0-0.2-0.2-0.3-0.3-0.4
			c-0.9-1-1.8-2-2.7-3c-0.3-0.3-0.5-0.6-0.1-0.9c0.4-0.3,0.6-0.1,0.9,0.2c0.9,1,1.7,1.9,2.6,2.9c0.1,0.1,0.3,0.3,0.4,0.4
			c0.1-0.2,0.1-0.4,0.1-0.5c-0.6-1-1.1-2.1-1.8-3.1c-0.6-0.9-1.6-1.4-2.7-1.4C21.4,17,20.5,16.5,19.8,15.4z M17.2,12.7
			c-1.1-1.2-2.2-2.4-3.4-3.6c-0.4-0.5-1.2-0.4-1.6,0c-0.5,0.4-0.6,1.2-0.1,1.6c1.2,1.2,2.4,2.3,3.7,3.5
			C16.3,13.7,16.8,13.2,17.2,12.7z"/>
		<path fill="#FFFFFF" d="M19.8,15.4c0.7,1.1,1.6,1.6,2.8,1.5c1.1-0.1,2.1,0.5,2.7,1.4c0.7,1,1.2,2.1,1.8,3.1c0.1,0.1,0,0.3-0.1,0.5
			c-0.1-0.1-0.3-0.2-0.4-0.4c-0.9-1-1.7-1.9-2.6-2.9c-0.3-0.3-0.5-0.5-0.9-0.2c-0.4,0.3-0.2,0.7,0.1,0.9c0.9,1,1.8,2,2.7,3
			c0.1,0.1,0.2,0.3,0.3,0.4c0,0.1-0.1,0.4-0.2,0.4c-0.2,0-0.4,0-0.6-0.2c-0.9-0.8-1.8-1.6-2.7-2.4c-0.2-0.1-0.3-0.3-0.5-0.4
			c-0.3-0.2-0.6-0.3-0.8,0c-0.2,0.3-0.2,0.6,0.1,0.8c1,0.9,2,1.8,3,2.6c0.2,0.1,0.4,0.2,0.5,0.3C25,23.9,25,24,24.9,24.1
			c-0.1,0-0.3,0.1-0.4,0c-1.1-0.6-2.2-1.1-3.2-1.8c-0.9-0.6-1.4-1.6-1.3-2.7c0.1-1.3-0.5-2.1-1.5-2.8c-0.8,0.6-1.6,1.3-1.5,2.4
			c0.3,2.8-2.1,4.4-4,4.8c-0.2,0-0.3,0.1-0.5,0.1c-1.8,0.3-2.9-0.9-2.6-2.7c0.2-1.3,0.8-2.5,1.8-3.4c0.7-0.7,1.6-1.1,2.6-1
			c1,0.1,1.8-0.3,2.5-1.1c2-2.2,4-4.3,6-6.5c0.5-0.5,1-0.7,1.5-0.5c0.9,0.4,1,1.4,0.3,2.1c-1.3,1.3-2.7,2.5-4.1,3.7
			C20.3,15,20.1,15.2,19.8,15.4z"/>
		<path fill="#FFFFFF" d="M17.2,12.7c-0.5,0.5-0.9,1-1.4,1.5c-1.3-1.2-2.5-2.3-3.7-3.5c-0.4-0.4-0.3-1.2,0.1-1.6
			c0.5-0.4,1.2-0.5,1.6,0C15,10.3,16.1,11.5,17.2,12.7z"/>
	</g>
</g>
</svg>
