<?xml version="1.0" encoding="utf-8"?>
<!-- Generator: Adobe Illustrator 25.0.1, SVG Export Plug-In . SVG Version: 6.00 Build 0)  -->
<svg version="1.2" baseProfile="tiny" xmlns="http://www.w3.org/2000/svg" xmlns:xlink="http://www.w3.org/1999/xlink" x="0px"
	 y="0px" viewBox="0 0 36 36" overflow="visible" xml:space="preserve">
<g id="eventbrite">
</g>
<g id="discount">
	<g>
		<path d="M15.1,23.1l4.6-13.7c0.2-0.5-0.1-1.1-0.6-1.2C18.5,8,18,8.3,17.8,8.8l-4.6,13.7c-0.2,0.5,0.1,1.1,0.6,1.2
			c0.1,0,0.2,0,0.3,0C14.5,23.8,14.9,23.5,15.1,23.1z"/>
		<path d="M21.9,18.8c1.6,0,2.9-1.3,2.9-2.9c0-1.6-1.3-2.9-2.9-2.9S19,14.3,19,15.9S20.3,18.8,21.9,18.8z M21.9,15c0.5,0,1,0.4,1,1
			c0,0.5-0.4,1-1,1s-1-0.4-1-1C20.9,15.4,21.4,15,21.9,15z"/>
		<path d="M10.9,13C9.3,13,8,14.3,8,15.9s1.3,2.9,2.9,2.9s2.9-1.3,2.9-2.9C13.8,14.3,12.5,13,10.9,13z M10.9,16.9c-0.5,0-1-0.4-1-1
			c0-0.5,0.4-1,1-1s1,0.4,1,1C11.9,16.5,11.5,16.9,10.9,16.9z"/>
		<path d="M34.8,12.8l-3.4-4.5l0.1-0.9c0-0.3-0.1-0.6-0.3-0.8l-2.1-2.1l2.1-2.1c0.4-0.4,0.4-1,0-1.4c-0.4-0.4-1-0.4-1.4,0l-2.1,2.1
			l-2.1-2.1c-0.2-0.2-0.5-0.3-0.8-0.3l-9.6,1.4c-0.2,0-0.4,0.1-0.5,0.3L2.9,14.3c-1.4,1.4-1.4,3.6,0,5L13,29.4
			c0.2,0.2,0.4,0.4,0.7,0.5v0.4c0,2,1.6,3.6,3.6,3.6h14.2c2,0,3.6-1.6,3.6-3.6V13.4C35,13.2,34.9,13,34.8,12.8L34.8,12.8z M4.3,18
			c-0.6-0.6-0.6-1.7,0-2.3L16,4l8.8-1.3l1.7,1.7l-1.4,1.4l-0.7-0.7c-0.4-0.4-1-0.4-1.4,0c-0.4,0.4-0.4,1,0,1.4l2.7,2.7
			c0.2,0.2,0.4,0.3,0.7,0.3s0.5-0.1,0.7-0.3c0.4-0.4,0.4-1,0-1.4l-0.7-0.7l1.4-1.4l1.7,1.7l-1.3,8.8L16.7,28.1
			c-0.3,0.3-0.7,0.5-1.1,0.5s-0.8-0.2-1.1-0.5L4.3,18z M33.1,30.3c0,0.9-0.7,1.6-1.6,1.6H17.2c-0.9,0-1.6-0.7-1.6-1.5
			c0.9,0,1.7-0.4,2.4-1l11.9-11.9c0.1-0.1,0.2-0.3,0.3-0.5l0.9-6l2,2.7L33.1,30.3z"/>
	</g>
</g>
<g id="cart">
</g>
<g id="tablet">
</g>
<g id="tickets">
</g>
<g id="value">
</g>
<g id="simple">
</g>
<g id="shopify">
</g>
<g id="toast">
</g>
<g id="square">
</g>
<g id="squarespace">
</g>
<g id="chownow">
</g>
</svg>
