<?xml version="1.0" encoding="utf-8"?>
<!-- Generator: Adobe Illustrator 25.0.1, SVG Export Plug-In . SVG Version: 6.00 Build 0)  -->
<svg version="1.2" baseProfile="tiny" xmlns="http://www.w3.org/2000/svg" xmlns:xlink="http://www.w3.org/1999/xlink" x="0px"
	 y="0px" viewBox="0 0 36 36" overflow="visible" xml:space="preserve">
<g id="eventbrite">
</g>
<g id="discount">
</g>
<g id="cart">
</g>
<g id="tablet">
</g>
<g id="tickets">
</g>
<g id="value">
</g>
<g id="simple">
	<g>
		<g>
			<g>
				<path d="M33,16.9C31.9,8.5,26.2,3,17.6,2.3l-0.9,0c-1.5,0.2-3.3,0.7-4.5,2c-0.7,0.8-1.3,2.2-1.4,3.3c-0.3,4,2.6,5.6,4.9,6.8
					c0,0,3.1,1.6,4.6,2.4l2.7,1.4c1.3,0.7,2.2,1.3,3,2.1c1.6,1.7,2.3,3.8,2.1,6.5c0,0.4,0.2,0.8,0.6,1c0.1,0.1,0.3,0.1,0.4,0.1
					c0.2,0,0.5-0.1,0.7-0.3c0.4-0.4,0.8-1,1.2-1.7c1-1.9,1.7-4,1.9-6.2c0-0.1,0.1-0.2,0.1-0.4L33,16.9z M31,19.2c0,0.1,0,0.2,0,0.2
					c-0.1,1.7-0.6,3.2-1,4.3c-0.4-1.8-1.2-3.3-2.4-4.7c-1-1.1-2.3-1.8-3.5-2.5l-2.7-1.4c-1.5-0.8-3.1-1.6-4.6-2.4l-0.1,0
					c-2.5-1.3-4.1-2.3-3.9-4.9c0-0.6,0.4-1.6,0.9-2.2c0.8-0.9,2.3-1.2,3.1-1.4h0.7C25,4.9,30.1,9.7,31,17.1V19.2z"/>
			</g>
		</g>
		<g>
			<g>
				<path d="M24.9,24.7c-0.6-2.1-2.4-3.3-4.3-4.3c-1.3-0.7-2.6-1.4-3.9-2c-1.2-0.6-2.4-1.3-3.7-1.9l-0.2-0.1c-1.2-0.6-2.3-1.2-3.1-2
					c-1-1-1.9-2.7-2.1-4.2C7.5,9.5,7.5,8.4,7.5,8S7.3,7.2,7,7.1C6.6,6.9,6.2,7,5.9,7.2c-1.4,1.2-2.7,3.1-3.5,5.2
					c-0.7,1.8-1.1,3.5-1.2,5.2v1.3c0.2,3.9,1.7,7.3,4.4,10.3c2.5,2.7,6,4.4,10.3,4.9l2.1,0c1.8-0.3,3.4-1.1,4.7-2.4
					C23.5,30.9,25.9,28,24.9,24.7z M21.3,30.3c-0.9,1-2.2,1.6-3.4,1.8l-1.9,0c-3.7-0.4-6.8-1.9-8.9-4.2c-2.5-2.7-3.7-5.6-3.9-9v-1.2
					c0.1-1.4,0.4-2.9,1-4.5c0.4-1,0.9-1.9,1.4-2.7c0,0,0,0,0,0C6,12.4,7,14.4,8.3,15.7c1,1,2.3,1.7,3.5,2.4l0.2,0.1
					c1.3,0.7,2.5,1.3,3.7,1.9c1.3,0.7,2.6,1.3,3.9,2c1.5,0.8,3,1.7,3.3,3.1C23.7,27.6,21.9,29.7,21.3,30.3z"/>
			</g>
		</g>
	</g>
</g>
<g id="shopify">
</g>
<g id="toast">
</g>
<g id="square">
</g>
<g id="squarespace">
</g>
<g id="chownow">
</g>
</svg>
