<?xml version="1.0" encoding="utf-8"?>
<!-- Generator: Adobe Illustrator 25.0.1, SVG Export Plug-In . SVG Version: 6.00 Build 0)  -->
<svg version="1.2" baseProfile="tiny" xmlns="http://www.w3.org/2000/svg" xmlns:xlink="http://www.w3.org/1999/xlink" x="0px"
	 y="0px" viewBox="0 0 36 36" overflow="visible" xml:space="preserve">
<g id="eventbrite">
	<g>
		<path d="M32.6,24.4c-2.7,6.6-10.5,11.3-19,9C5.6,31.3,0.5,23.4,2,14.9c1.4-8,8.5-13.8,16.8-13.2C27.4,2.2,33.9,9,34,17.4
			c-7.7,1.8-15.4,3.6-23.2,5.4c0.9,1.5,2.2,2.4,3.7,3.1c3.5,1.5,7.7,0.5,10.1-2.6c0.4-0.5,0.7-0.6,1.3-0.4
			C28.2,23.4,30.4,23.9,32.6,24.4z M24.9,12.8c-2-3.1-6.2-4.5-9.9-3.2c-3.7,1.2-5.8,4.9-5.6,6.8C14.6,15.2,19.7,14,24.9,12.8z"/>
		<path fill="#FFFFFF" d="M24.9,12.8c-5.2,1.2-10.3,2.4-15.5,3.6c-0.1-1.9,2-5.6,5.6-6.8C18.7,8.3,23,9.7,24.9,12.8z"/>
	</g>
</g>
<g id="discount">
</g>
<g id="cart">
</g>
<g id="tablet">
</g>
<g id="tickets">
</g>
<g id="value">
</g>
<g id="simple">
</g>
<g id="shopify">
</g>
<g id="toast">
</g>
<g id="square">
</g>
<g id="squarespace">
</g>
<g id="chownow">
</g>
</svg>
