<?xml version="1.0" encoding="utf-8"?>
<!-- Generator: Adobe Illustrator 25.0.1, SVG Export Plug-In . SVG Version: 6.00 Build 0)  -->
<svg version="1.2" baseProfile="tiny" xmlns="http://www.w3.org/2000/svg" xmlns:xlink="http://www.w3.org/1999/xlink" x="0px"
	 y="0px" viewBox="0 0 36 36" overflow="visible" xml:space="preserve">
<g id="eventbrite">
</g>
<g id="discount">
</g>
<g id="cart">
</g>
<g id="tablet">
	<g>
		<g>
			<path d="M32.9,3.8H3.7c-1.2,0-2.1,0.9-2.1,2.1v18.8c0,1.2,0.9,2.1,2.1,2.1h12c-0.5-0.8-1-1.8-1.7-3.1H4.7V7h27.2v16.7h-1.4v2.3
				c0,0.1,0,0.4-0.1,0.9h2.5c1.2,0,2.1-0.9,2.1-2.1V5.9C35,4.8,34.1,3.8,32.9,3.8z M33.4,16.4c-0.6,0-1-0.5-1-1s0.5-1,1-1
				c0.6,0,1,0.5,1,1S34,16.4,33.4,16.4z"/>
			<path d="M27.7,15.6h-0.1c-0.7,0-1.2,0.6-1.2,1.2v1.1h-0.2v-1.1c0-0.7-0.6-1.2-1.2-1.2h-0.1c-0.7,0-1.2,0.6-1.2,1.2v1.1h-0.2v-1.1
				c0-0.7-0.6-1.2-1.2-1.2h-0.1c-0.7,0-1.2,0.6-1.2,1.2v1.1h-0.1v-7.1c0-0.7-0.6-1.2-1.2-1.2l-0.1,0c-0.7,0-1.2,0.6-1.2,1.2v10.8
				c-0.3-0.4-0.6-0.8-0.9-1.1c-0.6-0.8-1.1-1.4-1.6-1.5c-0.6-0.1-1.1,0.1-1.4,0.5c-0.2,0.4-0.2,1,0.1,1.6c0.7,1.3,3.9,7,3.9,7
				c0.3,0.6,1.4,2.7,5.2,2.7v-0.1l0,0.1c2.8,0,4.1-1.3,4.7-2.4c0.7-1.2,0.7-2.4,0.7-2.4v-9.1C28.9,16.1,28.4,15.6,27.7,15.6z"/>
		</g>
	</g>
</g>
<g id="tickets">
</g>
<g id="value">
</g>
<g id="simple">
</g>
<g id="shopify">
</g>
<g id="toast">
</g>
<g id="square">
</g>
<g id="squarespace">
</g>
<g id="chownow">
</g>
</svg>
