<?xml version="1.0" encoding="utf-8"?>
<!-- Generator: Adobe Illustrator 25.0.1, SVG Export Plug-In . SVG Version: 6.00 Build 0)  -->
<svg version="1.2" baseProfile="tiny" xmlns="http://www.w3.org/2000/svg" xmlns:xlink="http://www.w3.org/1999/xlink" x="0px"
	 y="0px" viewBox="0 0 36 36" overflow="visible" xml:space="preserve">
<g id="eventbrite">
</g>
<g id="discount">
</g>
<g id="cart">
</g>
<g id="tablet">
</g>
<g id="tickets">
</g>
<g id="value">
</g>
<g id="simple">
</g>
<g id="shopify">
	<g>
		<path d="M29.2,6.7c0-0.2-0.2-0.3-0.3-0.3c-0.1,0-2.6-0.1-2.6-0.1s-2.1-2-2.2-2.2c-0.2-0.2-0.6-0.1-0.7-0.1c0,0-0.4,0.1-1,0.3
			c-0.1-0.4-0.3-0.8-0.5-1.2c-0.7-1.4-1.8-2.1-3.1-2.1l0,0c-0.1,0-0.2,0-0.3,0c0-0.1-0.1-0.1-0.1-0.1c-0.6-0.6-1.3-0.9-2.1-0.9
			c-1.7,0.1-3.3,1.2-4.7,3.4C10.6,5,9.9,6.9,9.6,8.3c-1.9,0.6-3.2,1-3.3,1c-1,0.3-1,0.3-1.1,1.2c-0.1,0.7-2.6,20.3-2.6,20.3
			l21.2,3.7l9.2-2.3C33,32.2,29.2,6.9,29.2,6.7z M21.2,4.7c-0.5,0.1-1.1,0.3-1.6,0.5c0-0.8-0.1-2-0.5-3C20.3,2.5,21,3.9,21.2,4.7z
			 M18.5,5.6c-1.1,0.3-2.3,0.7-3.6,1.1c0.3-1.3,1-2.6,1.8-3.5c0.3-0.3,0.7-0.7,1.2-0.9C18.4,3.3,18.5,4.7,18.5,5.6z M16.2,1.2
			c0.4,0,0.7,0.1,1,0.2c-0.4,0.2-0.9,0.6-1.3,1c-1.1,1.1-1.9,2.9-2.2,4.6c-1,0.3-2,0.6-2.9,0.9C11.4,5.3,13.6,1.3,16.2,1.2z"/>
		<g>
			<path d="M28.9,6.4c-0.1,0-2.6-0.1-2.6-0.1s-2.1-2-2.2-2.2c-0.1-0.1-0.2-0.1-0.3-0.1v30.4l9.2-2.3c0,0-3.7-25.3-3.8-25.5
				C29.2,6.5,29,6.4,28.9,6.4z"/>
			<path fill="#FFFFFF" d="M18.7,11.2l-1.1,4c0,0-1.2-0.6-2.6-0.4c-2.1,0.1-2.1,1.4-2.1,1.8c0.1,1.8,4.8,2.2,5.1,6.4
				c0.2,3.3-1.7,5.5-4.6,5.7c-3.4,0.2-5.2-1.8-5.2-1.8l0.7-3.1c0,0,1.9,1.4,3.4,1.3c1-0.1,1.3-0.9,1.3-1.4c-0.1-2.3-4-2.2-4.2-6
				c-0.2-3.2,1.9-6.5,6.6-6.8C17.8,10.7,18.7,11.2,18.7,11.2z"/>
			<line fill="none" stroke="#FFFFFF" stroke-width="0.5" stroke-miterlimit="10" x1="24" y1="4" x2="24" y2="35"/>
		</g>
	</g>
</g>
<g id="toast">
</g>
<g id="square">
</g>
<g id="squarespace">
</g>
<g id="chownow">
</g>
</svg>
