<?xml version="1.0" encoding="utf-8"?>
<!-- Generator: Adobe Illustrator 25.0.1, SVG Export Plug-In . SVG Version: 6.00 Build 0)  -->
<svg version="1.2" baseProfile="tiny" xmlns="http://www.w3.org/2000/svg" xmlns:xlink="http://www.w3.org/1999/xlink" x="0px"
	 y="0px" viewBox="0 0 36 36" overflow="visible" xml:space="preserve">
<g id="eventbrite">
</g>
<g id="discount">
</g>
<g id="cart">
</g>
<g id="tablet">
</g>
<g id="tickets">
</g>
<g id="value">
</g>
<g id="simple">
</g>
<g id="shopify">
</g>
<g id="toast">
</g>
<g id="square">
	<g>
		<path d="M28.7,1.5H6.4C3.3,1.5,0.8,4,0.8,7.1v22.3c0,3.1,2.5,5.6,5.6,5.6h22.3c3.1,0,5.6-2.5,5.6-5.6V7.1
			C34.3,4,31.8,1.5,28.7,1.5z M28.2,27.1c0,1-0.8,1.8-1.8,1.8H8.7c-1,0-1.8-0.8-1.8-1.8V9.3c0-1,0.8-1.8,1.8-1.8h17.8
			c1,0,1.8,0.8,1.8,1.8V27.1z"/>
		<path d="M14,22.8c-0.6,0-1-0.5-1-1v-7.1c0-0.6,0.5-1,1-1h7.1c0.6,0,1,0.5,1,1v7.1c0,0.6-0.5,1-1,1L14,22.8z"/>
	</g>
</g>
<g id="squarespace">
</g>
<g id="chownow">
</g>
</svg>
