<?xml version="1.0" encoding="utf-8"?>
<!-- Generator: Adobe Illustrator 25.0.1, SVG Export Plug-In . SVG Version: 6.00 Build 0)  -->
<svg version="1.2" baseProfile="tiny" xmlns="http://www.w3.org/2000/svg" xmlns:xlink="http://www.w3.org/1999/xlink" x="0px"
	 y="0px" viewBox="0 0 36 36" overflow="visible" xml:space="preserve">
<g id="eventbrite">
</g>
<g id="discount">
</g>
<g id="cart">
</g>
<g id="tablet">
</g>
<g id="tickets">
</g>
<g id="value">
</g>
<g id="simple">
</g>
<g id="shopify">
</g>
<g id="toast">
</g>
<g id="square">
</g>
<g id="squarespace">
	<g>
		<path d="M20,10.4c0.6,0.6,1.1,1.1,1.6,1.6c-0.1,0.1-0.1,0.2-0.2,0.2c-3.3,3.3-6.7,6.7-10,10c-2,2-4.7,2.5-7.1,1.3
			c-3.5-1.7-4.5-6.4-1.9-9.4c0.6-0.7,1.2-1.3,1.8-1.9C6.6,9.9,9,7.5,11.3,5.1c0.1-0.1,0.2-0.2,0.3-0.3c0.5,0.5,1.1,1.1,1.7,1.7
			c-0.1,0.1-0.3,0.1-0.4,0.2c-2.9,2.8-5.7,5.7-8.6,8.6c-1.5,1.5-1.6,3.5-0.5,5.1c1.3,1.7,3.8,2,5.5,0.6c0.2-0.2,0.4-0.3,0.5-0.5
			c3.3-3.3,6.5-6.5,9.8-9.8C19.8,10.6,19.9,10.5,20,10.4z"/>
		<path d="M23.1,31.4c-0.5-0.5-1.1-1.1-1.7-1.7c0.1-0.1,0.3-0.1,0.4-0.3c2.8-2.8,5.7-5.7,8.5-8.5c1.6-1.6,1.6-4,0-5.5
			C29,14,26.8,14,25.4,15.3c-0.4,0.4-0.8,0.8-1.2,1.2c-3,3-6.1,6.1-9.1,9.1c-0.1,0.1-0.2,0.3-0.2,0.4c-0.6-0.6-1.1-1.1-1.7-1.7
			c0,0,0.1-0.1,0.2-0.2c3.4-3.4,6.8-6.8,10.2-10.2c2.3-2.2,5.6-2.5,8-0.7c2.8,2.1,3.3,6.3,0.9,8.9c-1.3,1.4-2.6,2.7-4,4
			c-1.6,1.6-3.3,3.3-4.9,4.9C23.4,31.2,23.2,31.3,23.1,31.4z"/>
		<path d="M26,7.6c-0.6,0.6-1.1,1.1-1.7,1.7c-0.2-0.2-0.3-0.5-0.6-0.7c-1.7-1.7-3.9-1.7-5.6,0c-3.3,3.3-6.6,6.6-9.9,9.9
			c-0.1,0.1-0.2,0.2-0.3,0.3c-0.5-0.5-1.1-1.1-1.6-1.6c0,0,0.1-0.1,0.2-0.2c3.4-3.4,6.7-6.7,10.1-10.1c2.3-2.3,5.6-2.5,8.1-0.6
			C25.1,6.7,25.5,7.2,26,7.6z"/>
		<path d="M8.8,28.6c0.6-0.6,1.1-1.1,1.7-1.7c0.2,0.2,0.4,0.4,0.6,0.6c1.7,1.7,4,1.7,5.7,0c3.3-3.3,6.6-6.6,9.9-9.9
			c0.1-0.1,0.2-0.3,0.3-0.4c0.6,0.6,1.1,1.1,1.7,1.7c-0.1,0.1-0.1,0.1-0.2,0.2c-3.4,3.4-6.7,6.8-10.1,10.1c-2.1,2.1-5.2,2.5-7.6,1
			C10,29.8,9.4,29.2,8.8,28.6z"/>
	</g>
</g>
<g id="chownow">
</g>
</svg>
