<?xml version="1.0" encoding="utf-8"?>
<!-- Generator: Adobe Illustrator 25.0.1, SVG Export Plug-In . SVG Version: 6.00 Build 0)  -->
<svg version="1.2" baseProfile="tiny" xmlns="http://www.w3.org/2000/svg" xmlns:xlink="http://www.w3.org/1999/xlink" x="0px"
	 y="0px" viewBox="0 0 36 36" overflow="visible" xml:space="preserve">
<g id="eventbrite">
</g>
<g id="discount">
</g>
<g id="cart">
</g>
<g id="tablet">
</g>
<g id="tickets">
	<g>
		<path d="M31.2,17.7C31,18.5,30.4,19,29.6,19c-0.2,0-0.5,0.2-0.5,0.4c0,0.2,0.1,0.5,0.3,0.6c0.7,0.3,1.1,1.1,0.9,1.8l-0.1,0.7
			C30,23.5,29,24,28.1,23.8c-0.2-0.1-0.5-0.1-0.8-0.2c-0.4-0.1-0.7-0.1-1.1-0.2c-0.5-0.1-1-0.2-1.5-0.3c-0.6-0.1-1.2-0.2-1.7-0.3
			c-0.7-0.1-1.3-0.3-2-0.4c-0.7-0.1-1.4-0.3-2.1-0.4c-0.7-0.1-1.4-0.3-2.1-0.4c-0.7-0.1-1.4-0.3-2.1-0.4c-0.7-0.1-1.3-0.3-2-0.4
			c-0.6-0.1-1.2-0.2-1.8-0.4c-0.5-0.1-1.1-0.2-1.6-0.3c-0.4-0.1-0.9-0.2-1.3-0.3c-0.3-0.1-0.6-0.1-0.9-0.2c-0.1,0-0.3-0.1-0.4-0.1
			c0,0,0,0,0,0c0.1,0.3,0,0.7-0.1,1.1c-0.3,0.7-1.1,1.1-1.9,1c-0.2,0-0.5,0-0.6,0.2l-0.3,0.6c-0.1,0.2,0,0.4,0.2,0.6
			c0,0,23.8,11,23.9,11c0.2,0,0.5,0,0.6-0.2l0.3-0.6c0.1-0.2,0-0.4-0.2-0.6c-0.6-0.5-0.8-1.3-0.5-2c0.3-0.7,1.1-1.1,1.9-1
			c0.2,0,0.5,0,0.6-0.2l0.3-0.6c0.1-0.2,0-0.4-0.2-0.6c-0.6-0.5-0.8-1.3-0.5-2c0.3-0.7,1.1-1.1,1.9-1c0.2,0,0.5,0,0.6-0.2l0.3-0.6
			c0.1-0.2,0-0.4-0.2-0.6c-0.6-0.5-0.8-1.3-0.5-2c0.3-0.7,1.1-1.1,1.9-1c0.2,0,0.5,0,0.6-0.2l0.3-0.7c0.1-0.2,0-0.4-0.2-0.5
			l-3.6-1.6L31.2,17.7z"/>
		<path d="M2.8,17.5c0,0,25.7,5.2,25.8,5.2c0.2,0,0.4-0.1,0.5-0.4l0.1-0.7c0-0.2-0.1-0.4-0.3-0.5c-0.7-0.3-1.1-1.1-0.9-1.9
			c0.2-0.8,0.8-1.3,1.6-1.4c0.2,0,0.4-0.1,0.5-0.4l0.1-0.5l0-0.2c0-0.2-0.1-0.4-0.3-0.5c-0.7-0.3-1.1-1.1-0.9-1.9
			c0.2-0.8,0.8-1.3,1.6-1.4c0.2,0,0.4-0.1,0.5-0.4l0.1-0.7c0-0.2-0.1-0.4-0.3-0.5c-0.7-0.3-1.1-1.1-0.9-1.9c0.2-0.8,0.8-1.3,1.6-1.4
			c0.2,0,0.4-0.1,0.5-0.4l0.2-0.8c0-0.2-0.1-0.4-0.3-0.5c0,0-25.8-5.2-25.8-5.2c-0.2,0-0.4,0.1-0.4,0.3L5.4,2.6
			c0,0.2,0.1,0.4,0.3,0.5C6.4,3.4,6.8,4.2,6.6,5C6.5,5.7,5.8,6.3,5.1,6.3c-0.2,0-0.4,0.1-0.5,0.4L4.4,7.4c0,0.2,0.1,0.4,0.3,0.5
			C5.4,8.2,5.8,9,5.7,9.8c-0.2,0.8-0.8,1.3-1.6,1.4c-0.2,0-0.4,0.1-0.5,0.4l-0.1,0.7c0,0.2,0.1,0.4,0.3,0.5c0.7,0.3,1.1,1.1,0.9,1.9
			c-0.2,0.8-0.8,1.3-1.6,1.4c-0.2,0-0.4,0.1-0.5,0.4L2.5,17C2.5,17.2,2.6,17.4,2.8,17.5z M24.8,9.1c0.1-0.4,0.5-0.7,1-0.6
			c0.4,0.1,0.7,0.5,0.6,1l-1.1,5.4l-0.7,3.3c-0.1,0.4-0.4,0.7-0.8,0.7c-0.1,0-0.1,0-0.2,0c-0.4-0.1-0.7-0.5-0.6-1l0.7-3.7L24.8,9.1z
			 M9.9,6.1c0.1-0.4,0.5-0.7,1-0.6c0.4,0.1,0.7,0.5,0.6,1l-0.4,1.9l-0.4,2.1l-0.3,1.7l-0.6,3.1c-0.1,0.4-0.4,0.7-0.8,0.7
			c-0.1,0-0.1,0-0.2,0c0,0,0,0-0.1,0c-0.4-0.1-0.7-0.5-0.6-1l0.1-0.6l0.3-1.6L9.9,6.1z"/>
	</g>
</g>
<g id="value">
</g>
<g id="simple">
</g>
<g id="shopify">
</g>
<g id="toast">
</g>
<g id="square">
</g>
<g id="squarespace">
</g>
<g id="chownow">
</g>
</svg>
