<?xml version="1.0" encoding="utf-8"?>
<!-- Generator: Adobe Illustrator 25.0.1, SVG Export Plug-In . SVG Version: 6.00 Build 0)  -->
<svg version="1.2" baseProfile="tiny" xmlns="http://www.w3.org/2000/svg" xmlns:xlink="http://www.w3.org/1999/xlink" x="0px"
	 y="0px" viewBox="0 0 36 36" overflow="visible" xml:space="preserve">
<g id="eventbrite">
</g>
<g id="discount">
</g>
<g id="cart">
</g>
<g id="tablet">
</g>
<g id="tickets">
</g>
<g id="value">
</g>
<g id="simple">
</g>
<g id="shopify">
</g>
<g id="toast">
	<g>
		<path id="Shape" d="M33,23.9c0-2-0.1-4-0.3-6c-0.1-1.3-0.6-3.1-2.1-3.4c0.2,0,0.4,0,0.6,0c1.7-0.9,1.6-3.1,1-4.6
			c-0.8-2.1-2.7-3.5-4.5-4.5C21,1.8,12.1,2.1,5.6,6.1C4,7.1,2,9.1,2.9,11.4c0.2,0.6,0.6,1.1,1,1.5c0.2,0.2,0.6,0.7,0.6,0.7
			c-0.9,1.2-1.5,2.2-1.9,3.7c-1.2,4.3-1,7-0.7,10.5c0.2,2.1,0.9,5.3,3.4,5.7c2,0.3,4.2-0.4,6.2-0.6c2.2-0.3,4.4-0.7,6.7-0.6
			c3.1,0.1,6.3,0.8,9.4,0.9c1.7,0,4.4,0.2,4.9-2c0.5-2.1,0.5-4.2,0.5-6.4C33,24.3,33,24.1,33,23.9z M29.4,27.5
			c-0.8,1.8-3,1.6-4.5,1.4c-2.3-0.2-4.6-0.8-6.9-0.8c-2.1-0.1-4.1,0.3-6.1,0.8c-1.5,0.3-3.6,1.2-4.9,0c-1.5-1.3-1.8-3.4-1.8-5.3
			c0-1.7,0.2-3.3,0.5-4.9c0.2-1,0.5-2,0.9-2.9c0.5-1.4,1.3-2.2,1.4-2.1C7.5,13.2,7,13,6.7,12.4c-1-2.1,1.5-4,2.9-4.6
			c4.9-2.2,11.8-2,16.4,0.8c1.4,0.9,4.2,3.9,1.6,5.4c1.6,0.8,2,3.1,2.2,4.7c0.3,2.6,0.2,5.3-0.2,7.9C29.6,26.9,29.5,27.2,29.4,27.5z
			"/>
	</g>
</g>
<g id="square">
</g>
<g id="squarespace">
</g>
<g id="chownow">
</g>
</svg>
