<?xml version="1.0" encoding="utf-8"?>
<!-- Generator: Adobe Illustrator 25.0.1, SVG Export Plug-In . SVG Version: 6.00 Build 0)  -->
<svg version="1.2" baseProfile="tiny" xmlns="http://www.w3.org/2000/svg" xmlns:xlink="http://www.w3.org/1999/xlink" x="0px"
	 y="0px" viewBox="0 0 36 36" overflow="visible" xml:space="preserve">
<g id="eventbrite">
</g>
<g id="discount">
</g>
<g id="cart">
</g>
<g id="tablet">
</g>
<g id="tickets">
</g>
<g id="value">
	<g>
		<g>
			<g>
				<path d="M31.2,17.7l-3.7-5.7c-0.3-0.4-0.8-0.7-1.3-0.7H10c-0.5,0-1,0.3-1.3,0.7l-3.7,5.7c-0.4,0.6-0.3,1.3,0.1,1.9L17,32.8
					c0.3,0.3,0.7,0.5,1.1,0.5c0,0,0,0,0,0c0.4,0,0.9-0.2,1.1-0.5l11.8-13.2C31.5,19.1,31.6,18.3,31.2,17.7z M25.5,12.7l-3.1,4.8
					l-3.1-4.8H25.5z M21.2,18h-6.1l3.1-4.7L21.2,18z M16.9,12.7l-3.1,4.8l-3.1-4.8H16.9z M9.6,13.2l3.1,4.8H6.5L9.6,13.2z M6.7,19.3
					h6.6l3.5,11.4L6.7,19.3z M18.1,30.3l-3.4-11h6.8L18.1,30.3z M19.4,30.7l3.5-11.4h6.6L19.4,30.7z M23.6,18l3.1-4.8l3.1,4.8H23.6z
					"/>
			</g>
		</g>
		<g>
			<g>
				<path d="M3.3,18H1.9c-0.4,0-0.7,0.3-0.7,0.7c0,0.4,0.3,0.7,0.7,0.7h1.3c0.4,0,0.7-0.3,0.7-0.7C3.9,18.3,3.6,18,3.3,18z"/>
			</g>
		</g>
		<g>
			<g>
				<path d="M34.3,18H33c-0.4,0-0.7,0.3-0.7,0.7c0,0.4,0.3,0.7,0.7,0.7h1.3c0.4,0,0.7-0.3,0.7-0.7C35,18.3,34.7,18,34.3,18z"/>
			</g>
		</g>
		<g>
			<g>
				<path d="M30.1,6.7c-0.3-0.3-0.7-0.3-0.9,0l-2.2,2.2c-0.3,0.3-0.3,0.7,0,0.9c0.1,0.1,0.3,0.2,0.5,0.2c0.2,0,0.3-0.1,0.5-0.2
					l2.2-2.2C30.3,7.4,30.3,7,30.1,6.7z"/>
			</g>
		</g>
		<g>
			<g>
				<path d="M9.3,8.9L7.1,6.7c-0.3-0.3-0.7-0.3-0.9,0C6,7,6,7.4,6.2,7.7l2.2,2.2C8.5,10,8.7,10,8.9,10S9.2,10,9.3,9.9
					C9.6,9.6,9.6,9.2,9.3,8.9z"/>
			</g>
		</g>
		<g>
			<g>
				<path d="M18.1,1.8c-0.4,0-0.7,0.3-0.7,0.7v4.3c0,0.4,0.3,0.7,0.7,0.7c0.4,0,0.7-0.3,0.7-0.7V2.5C18.8,2.1,18.5,1.8,18.1,1.8z"/>
			</g>
		</g>
		<g>
			<g>
				<path d="M18.6,8.5c-0.1-0.1-0.3-0.2-0.5-0.2c-0.2,0-0.3,0.1-0.5,0.2c-0.1,0.1-0.2,0.3-0.2,0.5c0,0.2,0.1,0.3,0.2,0.5
					c0.1,0.1,0.3,0.2,0.5,0.2c0.2,0,0.3-0.1,0.5-0.2c0.1-0.1,0.2-0.3,0.2-0.5C18.8,8.8,18.7,8.6,18.6,8.5z"/>
			</g>
		</g>
	</g>
</g>
<g id="simple">
</g>
<g id="shopify">
</g>
<g id="toast">
</g>
<g id="square">
</g>
<g id="squarespace">
</g>
<g id="chownow">
</g>
</svg>
